<svg width="135" height="40" viewBox="0 0 135 40" fill="none" xmlns="http://www.w3.org/2000/svg">
<rect x="0.5" y="0.5" width="134" height="39" rx="4.5" stroke="#333333"/>
<path d="M68.136 21.7509C65.784 21.7509 63.867 23.5399 63.867 26.0039C63.867 28.4529 65.784 30.2569 68.136 30.2569C70.489 30.2569 72.406 28.4529 72.406 26.0039C72.405 23.5399 70.488 21.7509 68.136 21.7509ZM68.136 28.5829C66.847 28.5829 65.736 27.5199 65.736 26.0049C65.736 24.4739 66.848 23.4269 68.136 23.4269C69.425 23.4269 70.536 24.4739 70.536 26.0049C70.536 27.5189 69.425 28.5829 68.136 28.5829ZM58.822 21.7509C56.47 21.7509 54.553 23.5399 54.553 26.0039C54.553 28.4529 56.47 30.2569 58.822 30.2569C61.175 30.2569 63.092 28.4529 63.092 26.0039C63.092 23.5399 61.175 21.7509 58.822 21.7509ZM58.822 28.5829C57.533 28.5829 56.422 27.5199 56.422 26.0049C56.422 24.4739 57.534 23.4269 58.822 23.4269C60.111 23.4269 61.222 24.4739 61.222 26.0049C61.223 27.5189 60.111 28.5829 58.822 28.5829ZM47.744 23.0569V24.8609H52.062C51.933 25.8759 51.595 26.6169 51.079 27.1319C50.451 27.7599 49.468 28.4529 47.744 28.4529C45.086 28.4529 43.008 26.3099 43.008 23.6519C43.008 20.9939 45.086 18.8509 47.744 18.8509C49.178 18.8509 50.225 19.4149 50.998 20.1399L52.271 18.8669C51.191 17.8359 49.758 17.0469 47.744 17.0469C44.103 17.0469 41.042 20.0109 41.042 23.6519C41.042 27.2929 44.103 30.2569 47.744 30.2569C49.709 30.2569 51.192 29.6119 52.351 28.4039C53.543 27.2119 53.914 25.5359 53.914 24.1829C53.914 23.7649 53.882 23.3779 53.817 23.0559H47.744V23.0569ZM93.052 24.4579C92.698 23.5079 91.618 21.7509 89.411 21.7509C87.22 21.7509 85.399 23.4749 85.399 26.0039C85.399 28.3879 87.204 30.2569 89.62 30.2569C91.569 30.2569 92.697 29.0649 93.165 28.3719L91.715 27.4049C91.232 28.1139 90.571 28.5809 89.62 28.5809C88.67 28.5809 87.993 28.1459 87.558 27.2919L93.245 24.9399L93.052 24.4579ZM87.252 25.8759C87.204 24.2319 88.525 23.3949 89.476 23.3949C90.217 23.3949 90.845 23.7659 91.055 24.2969L87.252 25.8759ZM82.629 29.9999H84.497V17.4989H82.629V29.9999ZM79.567 22.7019H79.503C79.084 22.2019 78.278 21.7509 77.264 21.7509C75.137 21.7509 73.188 23.6199 73.188 26.0209C73.188 28.4049 75.137 30.2579 77.264 30.2579C78.279 30.2579 79.084 29.8069 79.503 29.2919H79.567V29.9039C79.567 31.5309 78.697 32.4009 77.296 32.4009C76.152 32.4009 75.443 31.5799 75.153 30.8869L73.526 31.5639C73.993 32.6909 75.233 34.0769 77.296 34.0769C79.487 34.0769 81.34 32.7879 81.34 29.6459V22.0099H79.568V22.7019H79.567ZM77.425 28.5829C76.136 28.5829 75.057 27.5029 75.057 26.0209C75.057 24.5219 76.136 23.4269 77.425 23.4269C78.697 23.4269 79.696 24.5219 79.696 26.0209C79.696 27.5029 78.697 28.5829 77.425 28.5829ZM101.806 17.4989H97.335V29.9999H99.2V25.2639H101.805C103.873 25.2639 105.907 23.7669 105.907 21.3819C105.907 18.9969 103.874 17.4989 101.806 17.4989ZM101.854 23.5239H99.2V19.2389H101.854C103.249 19.2389 104.041 20.3939 104.041 21.3819C104.041 22.3499 103.249 23.5239 101.854 23.5239ZM113.386 21.7289C112.035 21.7289 110.636 22.3239 110.057 23.6429L111.713 24.3339C112.067 23.6429 112.727 23.4169 113.418 23.4169C114.383 23.4169 115.364 23.9959 115.38 25.0249V25.1539C115.042 24.9609 114.318 24.6719 113.434 24.6719C111.649 24.6719 109.831 25.6529 109.831 27.4859C109.831 29.1589 111.295 30.2359 112.935 30.2359C114.189 30.2359 114.881 29.6729 115.315 29.0129H115.379V29.9779H117.181V25.1849C117.182 22.9669 115.524 21.7289 113.386 21.7289ZM113.16 28.5799C112.55 28.5799 111.697 28.2739 111.697 27.5179C111.697 26.5529 112.759 26.1829 113.676 26.1829C114.495 26.1829 114.882 26.3599 115.38 26.6009C115.235 27.7599 114.238 28.5799 113.16 28.5799ZM123.743 22.0019L121.604 27.4219H121.54L119.32 22.0019H117.31L120.639 29.5769L118.741 33.7909H120.687L125.818 22.0019H123.743ZM106.937 29.9999H108.802V17.4989H106.937V29.9999Z" fill="#333333"/>
<path d="M47.4176 10.2451C47.4176 11.0831 47.1696 11.7501 46.6726 12.2481C46.1086 12.8401 45.3726 13.1361 44.4686 13.1361C43.6026 13.1361 42.8656 12.8361 42.2606 12.2361C41.6546 11.6351 41.3516 10.8911 41.3516 10.0031C41.3516 9.11414 41.6546 8.37014 42.2606 7.77014C42.8656 7.16914 43.6026 6.86914 44.4686 6.86914C44.8986 6.86914 45.3096 6.95314 45.6996 7.12014C46.0906 7.28814 46.4036 7.51114 46.6376 7.79014L46.1106 8.31814C45.7136 7.84314 45.1666 7.60614 44.4676 7.60614C43.8356 7.60614 43.2896 7.82814 42.8286 8.27214C42.3676 8.71614 42.1376 9.29314 42.1376 10.0021C42.1376 10.7111 42.3676 11.2881 42.8286 11.7321C43.2896 12.1761 43.8356 12.3981 44.4676 12.3981C45.1376 12.3981 45.6966 12.1751 46.1436 11.7281C46.4336 11.4371 46.6016 11.0321 46.6466 10.5131H44.4676V9.79214H47.3746C47.4046 9.94914 47.4176 10.1001 47.4176 10.2451Z" fill="#333333"/>
<path d="M52.0277 7.7392H49.2957V9.6412H51.7597V10.3622H49.2957V12.2642H52.0277V13.0022H48.5247V7.0022H52.0277V7.7392Z" fill="#333333"/>
<path d="M55.2785 13.0022H54.5075V7.7392H52.8315V7.0022H56.9545V7.7392H55.2785V13.0022Z" fill="#333333"/>
<path d="M59.9375 13.0022V7.0022H60.7085V13.0022H59.9375Z" fill="#333333"/>
<path d="M64.1277 13.0022H63.3567V7.7392H61.6807V7.0022H65.8037V7.7392H64.1277V13.0022Z" fill="#333333"/>
<path d="M73.6084 12.2272C73.0184 12.8332 72.2854 13.1362 71.4084 13.1362C70.5314 13.1362 69.7984 12.8332 69.2094 12.2272C68.6194 11.6212 68.3254 10.8792 68.3254 10.0022C68.3254 9.12519 68.6194 8.38319 69.2094 7.77719C69.7984 7.17119 70.5314 6.86719 71.4084 6.86719C72.2804 6.86719 73.0124 7.17219 73.6044 7.78119C74.1964 8.39019 74.4924 9.13019 74.4924 10.0022C74.4924 10.8792 74.1974 11.6212 73.6084 12.2272ZM69.7784 11.7242C70.2224 12.1742 70.7654 12.3982 71.4084 12.3982C72.0514 12.3982 72.5954 12.1732 73.0384 11.7242C73.4824 11.2742 73.7054 10.7002 73.7054 10.0022C73.7054 9.30419 73.4824 8.73019 73.0384 8.28019C72.5954 7.83019 72.0514 7.60619 71.4084 7.60619C70.7654 7.60619 70.2224 7.83119 69.7784 8.28019C69.3354 8.73019 69.1124 9.30419 69.1124 10.0022C69.1124 10.7002 69.3354 11.2742 69.7784 11.7242Z" fill="#333333"/>
<path d="M75.5745 13.0022V7.0022H76.5125L79.4285 11.6692H79.4615L79.4285 10.5132V7.0022H80.1995V13.0022H79.3945L76.3435 8.1082H76.3105L76.3435 9.2642V13.0022H75.5745Z" fill="#333333"/>
<path d="M47.4176 10.2451C47.4176 11.0831 47.1696 11.7501 46.6726 12.2481C46.1086 12.8401 45.3726 13.1361 44.4686 13.1361C43.6026 13.1361 42.8656 12.8361 42.2606 12.2361C41.6546 11.6351 41.3516 10.8911 41.3516 10.0031C41.3516 9.11414 41.6546 8.37014 42.2606 7.77014C42.8656 7.16914 43.6026 6.86914 44.4686 6.86914C44.8986 6.86914 45.3096 6.95314 45.6996 7.12014C46.0906 7.28814 46.4036 7.51114 46.6376 7.79014L46.1106 8.31814C45.7136 7.84314 45.1666 7.60614 44.4676 7.60614C43.8356 7.60614 43.2896 7.82814 42.8286 8.27214C42.3676 8.71614 42.1376 9.29314 42.1376 10.0021C42.1376 10.7111 42.3676 11.2881 42.8286 11.7321C43.2896 12.1761 43.8356 12.3981 44.4676 12.3981C45.1376 12.3981 45.6966 12.1751 46.1436 11.7281C46.4336 11.4371 46.6016 11.0321 46.6466 10.5131H44.4676V9.79214H47.3746C47.4046 9.94914 47.4176 10.1001 47.4176 10.2451Z" stroke="#333333" stroke-width="0.2" stroke-miterlimit="10"/>
<path d="M52.0277 7.7392H49.2957V9.6412H51.7597V10.3622H49.2957V12.2642H52.0277V13.0022H48.5247V7.0022H52.0277V7.7392Z" stroke="#333333" stroke-width="0.2" stroke-miterlimit="10"/>
<path d="M55.2785 13.0022H54.5075V7.7392H52.8315V7.0022H56.9545V7.7392H55.2785V13.0022Z" stroke="#333333" stroke-width="0.2" stroke-miterlimit="10"/>
<path d="M59.9375 13.0022V7.0022H60.7085V13.0022H59.9375Z" stroke="#333333" stroke-width="0.2" stroke-miterlimit="10"/>
<path d="M64.1277 13.0022H63.3567V7.7392H61.6807V7.0022H65.8037V7.7392H64.1277V13.0022Z" stroke="#333333" stroke-width="0.2" stroke-miterlimit="10"/>
<path d="M73.6084 12.2272C73.0184 12.8332 72.2854 13.1362 71.4084 13.1362C70.5314 13.1362 69.7984 12.8332 69.2094 12.2272C68.6194 11.6212 68.3254 10.8792 68.3254 10.0022C68.3254 9.12519 68.6194 8.38319 69.2094 7.77719C69.7984 7.17119 70.5314 6.86719 71.4084 6.86719C72.2804 6.86719 73.0124 7.17219 73.6044 7.78119C74.1964 8.39019 74.4924 9.13019 74.4924 10.0022C74.4924 10.8792 74.1974 11.6212 73.6084 12.2272ZM69.7784 11.7242C70.2224 12.1742 70.7654 12.3982 71.4084 12.3982C72.0514 12.3982 72.5954 12.1732 73.0384 11.7242C73.4824 11.2742 73.7054 10.7002 73.7054 10.0022C73.7054 9.30419 73.4824 8.73019 73.0384 8.28019C72.5954 7.83019 72.0514 7.60619 71.4084 7.60619C70.7654 7.60619 70.2224 7.83119 69.7784 8.28019C69.3354 8.73019 69.1124 9.30419 69.1124 10.0022C69.1124 10.7002 69.3354 11.2742 69.7784 11.7242Z" stroke="#333333" stroke-width="0.2" stroke-miterlimit="10"/>
<path d="M75.5745 13.0022V7.0022H76.5125L79.4285 11.6692H79.4615L79.4285 10.5132V7.0022H80.1995V13.0022H79.3945L76.3435 8.1082H76.3105L76.3435 9.2642V13.0022H75.5745Z" stroke="#333333" stroke-width="0.2" stroke-miterlimit="10"/>
<path d="M26.6699 24.4795L12.5137 32.5254C11.8789 32.8854 11.2967 32.9452 10.8506 32.7539L22.8965 20.7061L26.6699 24.4795ZM22.1895 19.999L10.1562 32.0342C10.0383 31.767 9.97266 31.4393 9.97266 31.0576V8.94238C9.97266 8.5612 10.0382 8.23329 10.1562 7.96582L22.1895 19.999ZM32.0146 18.5566C33.4116 19.3506 33.4116 20.6503 32.0146 21.4453L27.5723 23.9678L23.6035 19.999L27.5703 16.0312L32.0146 18.5566ZM10.8516 7.24707C11.2976 7.056 11.8792 7.11602 12.5137 7.47656L26.6689 15.5186L22.8965 19.292L10.8516 7.24707Z" fill="#333333"/>
</svg>
