<svg width="21" height="21" viewBox="0 0 21 21" fill="none" xmlns="http://www.w3.org/2000/svg">
<path d="M13.9959 2.16406H7.01257C3.97923 2.16406 2.1709 3.9724 2.1709 7.00573V13.9807C2.1709 17.0224 3.97923 18.8307 7.01257 18.8307H13.9876C17.0209 18.8307 18.8292 17.0224 18.8292 13.9891V7.00573C18.8376 3.9724 17.0292 2.16406 13.9959 2.16406ZM14.5709 10.1057C14.5709 10.4307 14.3126 10.6891 13.9876 10.6891C13.6626 10.6891 13.4042 10.4307 13.4042 10.1057V9.95573L11.1376 12.2224C11.0126 12.3474 10.8459 12.4057 10.6709 12.3891C10.4959 12.3724 10.3376 12.2807 10.2459 12.1307L9.3959 10.8641L7.41256 12.8474C7.2959 12.9641 7.15423 13.0141 7.00423 13.0141C6.85423 13.0141 6.70423 12.9557 6.5959 12.8474C6.3709 12.6224 6.3709 12.2557 6.5959 12.0224L9.07923 9.53906C9.20423 9.41406 9.3709 9.35573 9.5459 9.3724C9.7209 9.38906 9.87923 9.48073 9.9709 9.63073L10.8209 10.8974L12.5792 9.13906H12.4292C12.1042 9.13906 11.8459 8.88073 11.8459 8.55573C11.8459 8.23073 12.1042 7.9724 12.4292 7.9724H13.9792C14.0542 7.9724 14.1292 7.98906 14.2042 8.01406C14.3459 8.0724 14.4626 8.18906 14.5209 8.33073C14.5542 8.40573 14.5626 8.48073 14.5626 8.55573V10.1057H14.5709Z" fill="#008DA9"/>
</svg>
