<svg width="222" height="100" viewBox="0 0 222 100" fill="none" xmlns="http://www.w3.org/2000/svg">
<path d="M220.76 12.1057C221.474 12.5253 221.713 13.4445 221.293 14.1588C220.874 14.8731 219.955 15.1121 219.24 14.6925L220 13.3991L220.76 12.1057ZM0.53157 68.1844C0.362473 67.3734 0.882828 66.5789 1.69382 66.4098L14.9096 63.6542C15.7206 63.4851 16.5151 64.0054 16.6842 64.8164C16.8533 65.6274 16.3329 66.4219 15.5219 66.591L3.7746 69.0405L6.22401 80.7878C6.39311 81.5988 5.87277 82.3933 5.06178 82.5624C4.25079 82.7315 3.45628 82.2111 3.28719 81.4002L0.53157 68.1844ZM220 13.3991L219.24 14.6925C206.438 7.17276 186.821 0.374657 169.399 4.00832C160.741 5.8142 152.604 10.1973 146.043 18.4077C139.465 26.6394 134.4 38.8102 132.086 56.2963L130.599 56.0996L129.112 55.9028C131.475 38.0506 136.685 25.3128 143.699 16.5349C150.731 7.73564 159.502 3.00807 168.787 1.07152C187.252 -2.77966 207.659 4.41032 220.76 12.1057L220 13.3991ZM130.599 56.0996L132.086 56.2963C129.708 74.2665 122.778 85.8737 112.882 92.5871C103.029 99.2714 90.4971 100.925 77.2517 99.5556C50.7932 96.8199 20.743 81.9467 1.17816 69.133L2 67.8782L2.82182 66.6234C22.2265 79.3321 51.7996 93.9079 77.5603 96.5715C90.4244 97.9016 102.151 96.2424 111.198 90.1045C120.203 83.9955 126.814 73.271 129.112 55.9028L130.599 56.0996Z" fill="#CCCCCC"/>
</svg>
