<svg width="222" height="100" viewBox="0 0 222 100" fill="none" xmlns="http://www.w3.org/2000/svg">
<path d="M1.24029 12.1057C0.525974 12.5253 0.28704 13.4445 0.706617 14.1588C1.12619 14.8731 2.04539 15.1121 2.75971 14.6925L2 13.3991L1.24029 12.1057ZM221.468 68.1844C221.638 67.3734 221.117 66.5789 220.306 66.4098L207.09 63.6542C206.279 63.4851 205.485 64.0054 205.316 64.8164C205.147 65.6274 205.667 66.4219 206.478 66.591L218.225 69.0405L215.776 80.7878C215.607 81.5988 216.127 82.3933 216.938 82.5624C217.749 82.7315 218.544 82.2111 218.713 81.4002L221.468 68.1844ZM2 13.3991L2.75971 14.6925C15.5618 7.17276 35.1788 0.374657 52.6005 4.00832C61.2588 5.8142 69.3962 10.1973 75.9569 18.4077C82.5347 26.6394 87.5996 38.8102 89.9136 56.2963L91.4006 56.0996L92.8877 55.9028C90.5253 38.0506 85.3149 25.3128 78.3006 16.5349C71.2693 7.73564 62.4979 3.00807 53.2131 1.07152C34.7484 -2.77966 14.3415 4.41032 1.24029 12.1057L2 13.3991ZM91.4006 56.0996L89.9136 56.2963C92.2916 74.2665 99.2222 85.8737 109.118 92.5871C118.971 99.2714 131.503 100.925 144.748 99.5556C171.207 96.8199 201.257 81.9467 220.822 69.133L220 67.8782L219.178 66.6234C199.774 79.3321 170.2 93.9079 144.44 96.5715C131.576 97.9016 119.849 96.2424 110.802 90.1045C101.797 83.9955 95.186 73.271 92.8877 55.9028L91.4006 56.0996Z" fill="#CCCCCC"/>
</svg>
