<svg width="24" height="24" viewBox="0 0 24 24" fill="none" xmlns="http://www.w3.org/2000/svg">
<path d="M2 14.5035L11.6422 19.3246C11.7734 19.3902 11.839 19.423 11.9078 19.4359C11.9687 19.4473 12.0313 19.4473 12.0922 19.4359C12.161 19.423 12.2266 19.3902 12.3578 19.3246L22 14.5035M2 9.50348L11.6422 4.68237C11.7734 4.61678 11.839 4.58398 11.9078 4.57107C11.9687 4.55964 12.0313 4.55964 12.0922 4.57107C12.161 4.58398 12.2266 4.61678 12.3578 4.68237L22 9.50348L12.3578 14.3246C12.2266 14.3902 12.161 14.423 12.0922 14.4359C12.0313 14.4473 11.9687 14.4473 11.9078 14.4359C11.839 14.423 11.7734 14.3902 11.6422 14.3246L2 9.50348Z" stroke="#3182ED" stroke-width="2" stroke-linecap="round" stroke-linejoin="round"/>
</svg>
