<svg width="44" height="44" viewBox="0 0 44 44" fill="none" xmlns="http://www.w3.org/2000/svg">
<path d="M17.417 25.2058C17.417 26.9842 18.792 28.4142 20.4787 28.4142H23.9253C25.392 28.4142 26.5837 27.1675 26.5837 25.6092C26.5837 23.9408 25.8503 23.3358 24.7687 22.9508L19.2503 21.0258C18.1687 20.6408 17.4353 20.0542 17.4353 18.3675C17.4353 16.8275 18.627 15.5625 20.0936 15.5625H23.5403C25.227 15.5625 26.602 16.9925 26.602 18.7708" stroke="white" stroke-width="2.5" stroke-linecap="round" stroke-linejoin="round"/>
<path d="M22 13.75V30.25" stroke="white" stroke-width="2.5" stroke-linecap="round" stroke-linejoin="round"/>
<path d="M40.3337 21.9974C40.3337 32.1174 32.1203 40.3307 22.0003 40.3307C11.8803 40.3307 3.66699 32.1174 3.66699 21.9974C3.66699 11.8774 11.8803 3.66406 22.0003 3.66406" stroke="white" stroke-width="2.5" stroke-linecap="round" stroke-linejoin="round"/>
<path d="M40.3333 10.9974V3.66406H33" stroke="white" stroke-width="2.5" stroke-linecap="round" stroke-linejoin="round"/>
<path d="M31.167 12.8307L40.3337 3.66406" stroke="white" stroke-width="2.5" stroke-linecap="round" stroke-linejoin="round"/>
</svg>
