<svg width="44" height="44" viewBox="0 0 44 44" fill="none" xmlns="http://www.w3.org/2000/svg">
<path d="M14.667 22.3672H27.5003" stroke="white" stroke-width="2.5" stroke-miterlimit="10" stroke-linecap="round" stroke-linejoin="round"/>
<path d="M14.667 29.7031H22.697" stroke="white" stroke-width="2.5" stroke-miterlimit="10" stroke-linecap="round" stroke-linejoin="round"/>
<path d="M18.3337 10.9974H25.667C29.3337 10.9974 29.3337 9.16406 29.3337 7.33073C29.3337 3.66406 27.5003 3.66406 25.667 3.66406H18.3337C16.5003 3.66406 14.667 3.66406 14.667 7.33073C14.667 10.9974 16.5003 10.9974 18.3337 10.9974Z" stroke="white" stroke-width="2.5" stroke-miterlimit="10" stroke-linecap="round" stroke-linejoin="round"/>
<path d="M29.3333 7.36719C35.4383 7.69719 38.5 9.95219 38.5 18.3305V29.3305C38.5 36.6639 36.6667 40.3305 27.5 40.3305H16.5C7.33333 40.3305 5.5 36.6639 5.5 29.3305V18.3305C5.5 9.97052 8.56167 7.69719 14.6667 7.36719" stroke="white" stroke-width="2.5" stroke-miterlimit="10" stroke-linecap="round" stroke-linejoin="round"/>
</svg>
