<svg width="22" height="23" viewBox="0 0 22 23" fill="none" xmlns="http://www.w3.org/2000/svg">
<path d="M10.9997 2.33594C5.94884 2.33594 1.83301 6.45177 1.83301 11.5026C1.83301 16.5534 5.94884 20.6693 10.9997 20.6693C16.0505 20.6693 20.1663 16.5534 20.1663 11.5026C20.1663 6.45177 16.0505 2.33594 10.9997 2.33594ZM15.3813 9.39427L10.1838 14.5918C10.0555 14.7201 9.88134 14.7934 9.69801 14.7934C9.51467 14.7934 9.34051 14.7201 9.21217 14.5918L6.61801 11.9976C6.35217 11.7318 6.35217 11.2918 6.61801 11.0259C6.88384 10.7601 7.32384 10.7601 7.58967 11.0259L9.69801 13.1343L14.4097 8.4226C14.6755 8.15677 15.1155 8.15677 15.3813 8.4226C15.6472 8.68844 15.6472 9.11927 15.3813 9.39427Z" fill="#17C666"/>
</svg>
