<svg width="100" height="100" viewBox="0 0 100 100" fill="none" xmlns="http://www.w3.org/2000/svg">
<path d="M49.9997 94.7943C25.2913 94.7943 5.20801 74.7109 5.20801 50.0026C5.20801 25.2943 25.2913 5.21094 49.9997 5.21094C74.708 5.21094 94.7913 25.2943 94.7913 50.0026C94.7913 74.7109 74.708 94.7943 49.9997 94.7943ZM49.9997 11.4609C28.7497 11.4609 11.458 28.7526 11.458 50.0026C11.458 71.2526 28.7497 88.5443 49.9997 88.5443C71.2497 88.5443 88.5413 71.2526 88.5413 50.0026C88.5413 28.7526 71.2497 11.4609 49.9997 11.4609Z" fill="black"/>
<path d="M44.083 64.9193C43.2497 64.9193 42.458 64.5859 41.8747 64.0026L30.083 52.2109C28.8747 51.0026 28.8747 49.0026 30.083 47.7943C31.2913 46.5859 33.2913 46.5859 34.4997 47.7943L44.083 57.3776L65.4997 35.9609C66.708 34.7526 68.708 34.7526 69.9163 35.9609C71.1247 37.1693 71.1247 39.1693 69.9163 40.3776L46.2913 64.0026C45.708 64.5859 44.9163 64.9193 44.083 64.9193Z" fill="black"/>
</svg>
