<svg width="20" height="20" viewBox="0 0 20 20" fill="none" xmlns="http://www.w3.org/2000/svg">
<path d="M10.0003 18.9557C5.05866 18.9557 1.04199 14.9391 1.04199 9.9974C1.04199 5.05573 5.05866 1.03906 10.0003 1.03906C14.942 1.03906 18.9587 5.05573 18.9587 9.9974C18.9587 14.9391 14.942 18.9557 10.0003 18.9557ZM10.0003 2.28906C5.75033 2.28906 2.29199 5.7474 2.29199 9.9974C2.29199 14.2474 5.75033 17.7057 10.0003 17.7057C14.2503 17.7057 17.7087 14.2474 17.7087 9.9974C17.7087 5.7474 14.2503 2.28906 10.0003 2.28906Z" fill="white"/>
<path d="M8.81621 12.9807C8.64954 12.9807 8.49121 12.9141 8.37454 12.7974L6.01621 10.4391C5.77454 10.1974 5.77454 9.7974 6.01621 9.55573C6.25788 9.31406 6.65788 9.31406 6.89954 9.55573L8.81621 11.4724L13.0995 7.18906C13.3412 6.9474 13.7412 6.9474 13.9829 7.18906C14.2245 7.43073 14.2245 7.83073 13.9829 8.0724L9.25788 12.7974C9.14121 12.9141 8.98288 12.9807 8.81621 12.9807Z" fill="white"/>
</svg>
