<svg width="44" height="44" viewBox="0 0 44 44" fill="none" xmlns="http://www.w3.org/2000/svg">
<path d="M32.9966 13.1241C32.8866 13.1057 32.7582 13.1057 32.6482 13.1241C30.1182 13.0324 28.1016 10.9607 28.1016 8.39407C28.1016 5.7724 30.2099 3.66406 32.8316 3.66406C35.4532 3.66406 37.5616 5.79073 37.5616 8.39407C37.5432 10.9607 35.5266 13.0324 32.9966 13.1241Z" stroke="white" stroke-width="2.5" stroke-linecap="round" stroke-linejoin="round"/>
<path d="M31.1097 26.471C33.6214 26.8927 36.3897 26.4527 38.333 25.151C40.918 23.4277 40.918 20.6044 38.333 18.881C36.3714 17.5794 33.5664 17.1393 31.0547 17.5793" stroke="white" stroke-width="2.5" stroke-linecap="round" stroke-linejoin="round"/>
<path d="M10.94 13.1241C11.05 13.1057 11.1783 13.1057 11.2883 13.1241C13.8183 13.0324 15.835 10.9607 15.835 8.39407C15.835 5.7724 13.7267 3.66406 11.105 3.66406C8.48334 3.66406 6.375 5.79073 6.375 8.39407C6.39333 10.9607 8.41 13.0324 10.94 13.1241Z" stroke="white" stroke-width="2.5" stroke-linecap="round" stroke-linejoin="round"/>
<path d="M12.8261 26.471C10.3145 26.8927 7.54615 26.4527 5.60281 25.151C3.01781 23.4277 3.01781 20.6044 5.60281 18.881C7.56448 17.5794 10.3695 17.1393 12.8811 17.5793" stroke="white" stroke-width="2.5" stroke-linecap="round" stroke-linejoin="round"/>
<path d="M21.9966 26.8194C21.8866 26.801 21.7582 26.801 21.6482 26.8194C19.1182 26.7277 17.1016 24.656 17.1016 22.0894C17.1016 19.4677 19.2099 17.3594 21.8316 17.3594C24.4532 17.3594 26.5616 19.486 26.5616 22.0894C26.5432 24.656 24.5266 26.746 21.9966 26.8194Z" stroke="white" stroke-width="2.5" stroke-linecap="round" stroke-linejoin="round"/>
<path d="M16.6653 32.5981C14.0803 34.3215 14.0803 37.1448 16.6653 38.8681C19.5986 40.8298 24.402 40.8298 27.3353 38.8681C29.9203 37.1448 29.9203 34.3215 27.3353 32.5981C24.4203 30.6548 19.5986 30.6548 16.6653 32.5981Z" stroke="white" stroke-width="2.5" stroke-linecap="round" stroke-linejoin="round"/>
</svg>
